HIERARCHY
ROOT Hips
{
	OFFSET 0.000000 0.000000 0.000000
	CHANNELS 6 Xposition Yposition Zposition Xrotation Yrotation Zrotation
	JOINT LeftUpLeg_virtual
	{
		OFFSET 0.000000 0.000000 0.000000
		CHANNELS 3 Xrotation Yrotation Zrotation
		JOINT LeftUpLeg
		{
			OFFSET 10.205400 -3.823500 0.155100
			CHANNELS 3 Xrotation Yrotation Zrotation
			JOINT LeftLeg
			{
				OFFSET 0.708757 -12.982077 0.567790
				CHANNELS 3 Xrotation Yrotation Zrotation
				JOINT LeftFoot
				{
					OFFSET -0.708756 -10.717838 -2.184338
					CHANNELS 3 Xrotation Yrotation Zrotation
					JOINT LeftToeBase
					{
						OFFSET 0.108149 -7.191104 7.560241
						CHANNELS 3 Xrotation Yrotation Zrotation
						JOINT LeftToe_End
						{
							OFFSET 0.070230 0.081724 4.490308
							CHANNELS 3 Xrotation Yrotation Zrotation
							End Site
							{
								OFFSET 0 0 0
							}
						}
					}
				}
			}
		}
	}
	JOINT RightUpLeg_virtual
	{
		OFFSET 0.000000 0.000000 0.000000
		CHANNELS 3 Xrotation Yrotation Zrotation
		JOINT RightUpLeg
		{
			OFFSET -10.205400 -3.823500 0.005500
			CHANNELS 3 Xrotation Yrotation Zrotation
			JOINT RightLeg
			{
				OFFSET -0.708756 -12.982134 0.610632
				CHANNELS 3 Xrotation Yrotation Zrotation
				JOINT RightFoot
				{
					OFFSET 0.708754 -10.717769 -1.945823
					CHANNELS 3 Xrotation Yrotation Zrotation
					JOINT RightToeBase
					{
						OFFSET -0.108140 -7.191069 7.372968
						CHANNELS 3 Xrotation Yrotation Zrotation
						JOINT RightToe_End
						{
							OFFSET -0.070227 0.081735 4.479403
							CHANNELS 3 Xrotation Yrotation Zrotation
							End Site
							{
								OFFSET 0 0 0
							}
						}
					}
				}
			}
		}
	}
	JOINT Spine_virtual
	{
		OFFSET 0.000000 0.000000 0.000000
		CHANNELS 3 Xrotation Yrotation Zrotation
		JOINT Spine
		{
			OFFSET 0.000000 6.876099 0.125700
			CHANNELS 3 Xrotation Yrotation Zrotation
			JOINT Spine1
			{
				OFFSET 0.000000 5.730043 0.104720
				CHANNELS 3 Xrotation Yrotation Zrotation
				JOINT Spine1_split
				{
					OFFSET 0.000000 5.730043 0.104720
					CHANNELS 3 Xrotation Yrotation Zrotation
					JOINT Spine2
					{
						OFFSET 0.000000 5.730043 0.104720
						CHANNELS 3 Xrotation Yrotation Zrotation
						JOINT Neck_virtual
						{
							OFFSET 0.000000 0.000000 0.000000
							CHANNELS 3 Xrotation Yrotation Zrotation
							JOINT Neck
							{
								OFFSET 0.000000 10.314075 0.188496
								CHANNELS 3 Xrotation Yrotation Zrotation
								JOINT Head
								{
									OFFSET 0.000000 7.643700 -2.377400
									CHANNELS 3 Xrotation Yrotation Zrotation
									JOINT HeadTop_End
									{
										OFFSET 0.000000 43.788605 -13.619600
										CHANNELS 3 Xrotation Yrotation Zrotation
										End Site
										{
											OFFSET 0 0 0
										}
									}
								}
							}
						}
						JOINT LeftShoulder_virtual
						{
							OFFSET 0.000000 0.000000 0.000000
							CHANNELS 3 Xrotation Yrotation Zrotation
							JOINT LeftShoulder
							{
								OFFSET 2.196100 4.412489 0.087492
								CHANNELS 3 Xrotation Yrotation Zrotation
								JOINT LeftShoulder_split
								{
									OFFSET 2.196100 4.412489 0.087492
									CHANNELS 3 Xrotation Yrotation Zrotation
									JOINT LeftArm
									{
										OFFSET 8.771219 -2.981674 -0.026999
										CHANNELS 3 Xrotation Yrotation Zrotation
										JOINT LeftForeArm
										{
											OFFSET 8.512804 0.000000 -0.000000
											CHANNELS 3 Xrotation Yrotation Zrotation
											JOINT LeftHand
											{
												OFFSET 18.484802 0.000000 -0.000000
												CHANNELS 3 Xrotation Yrotation Zrotation
												End Site
												{
													OFFSET 0 0 0
												}
											}
										}
									}
								}
							}
						}
						JOINT RightShoulder_virtual
						{
							OFFSET 0.000000 0.000000 0.000000
							CHANNELS 3 Xrotation Yrotation Zrotation
							JOINT RightShoulder
							{
								OFFSET -2.196100 4.412496 0.070690
								CHANNELS 3 Xrotation Yrotation Zrotation
								JOINT RightShoulder_split
								{
									OFFSET -2.196100 4.412496 0.070690
									CHANNELS 3 Xrotation Yrotation Zrotation
									JOINT RightArm
									{
										OFFSET -8.771282 -2.981682 -0.094208
										CHANNELS 3 Xrotation Yrotation Zrotation
										JOINT RightForeArm
										{
											OFFSET -8.494598 0.000000 0.000000
											CHANNELS 3 Xrotation Yrotation Zrotation
											JOINT RightHand
											{
												OFFSET -18.483803 0.000000 0.000001
												CHANNELS 3 Xrotation Yrotation Zrotation
												End Site
												{
													OFFSET 0 0 0
												}
											}
										}
									}
								}
							}
						}
					}
				}
			}
		}
	}
}
MOTION
Frames: 7
Frame Time: 0.03333333
-0.435669 25.608521 3.517441 0.000000 0.000000 0.000000 22.888053 -19.528614 7.723364 -74.206146 -5.887285 29.574736 67.530511 -7.592964 3.112816 -7.348255 5.086739 -27.124778 -4.127012 -0.186373 0.365056 0.000000 0.000000 0.000000 22.877625 -20.840748 8.305298 -58.452773 0.601963 -33.468490 67.902339 10.282277 -4.853382 -24.151655 -10.032151 24.406206 -4.761175 1.759667 0.118451 0.000000 0.000000 0.000000 25.189084 -21.621474 8.253307 15.639573 1.913166 -0.947227 10.018763 1.913753 -1.205974 1.197118 0.986228 0.661225 0.000000 0.000000 0.000000 10.285847 1.675547 -0.423171 -8.634812 4.720588 -9.058894 -40.643003 10.625806 8.926121 0.000000 0.000000 0.000000 10.197705 1.781909 -1.205184 3.647271 -6.065909 7.606413 -5.256208 -3.246093 -0.630580 -51.835351 4.863712 -61.024872 -1.725679 -83.438875 -0.600684 0.000000 0.000000 0.000000 11.209338 2.147812 -0.668150 3.146506 12.603379 3.882528 1.768180 3.784432 1.841267 -42.083753 11.650269 45.871636 169.033904 88.389779 -169.744435 0.000000 0.000000 0.000000 
-0.418554 25.647062 3.594822 0.000000 0.000000 0.000000 23.326959 -19.685242 8.185826 -73.939987 -5.620262 29.041845 66.469823 -7.908123 3.197847 -7.753329 5.064744 -26.921957 -4.093804 -0.174705 0.400743 0.000000 0.000000 0.000000 23.238908 -20.921223 8.719018 -58.663067 0.404386 -33.284489 67.320496 10.210841 -5.527477 -24.250588 -10.324085 24.790325 -4.732337 1.742524 0.094472 0.000000 0.000000 0.000000 25.194502 -21.322377 8.490505 15.707707 1.935377 -0.948157 9.886124 1.980012 -1.268052 1.042421 0.640545 0.762585 0.000000 0.000000 0.000000 10.337509 1.697190 -0.485225 -8.203390 4.686142 -8.672619 -40.910466 11.411824 8.751833 0.000000 0.000000 0.000000 10.234786 1.813640 -1.157331 3.455252 -5.403980 6.733124 -5.325681 -3.200560 -0.860349 -50.441541 5.218892 -61.982416 -2.355386 -85.724967 -1.404365 0.000000 0.000000 0.000000 11.236307 2.094389 -0.760136 2.996385 12.465554 5.099044 1.426844 4.016040 1.695229 -40.531705 11.961780 46.703106 177.030184 85.141873 -177.873467 0.000000 0.000000 0.000000 
-0.437751 25.626207 3.652111 0.000000 0.000000 0.000000 23.695663 -19.901404 8.626185 -73.958368 -5.409339 28.802925 66.021421 -8.234951 3.244763 -8.022830 5.026789 -26.954174 -4.102784 -0.177120 0.523415 0.000000 0.000000 0.000000 23.709111 -21.159957 9.157709 -59.244303 0.426030 -33.092318 67.264427 10.091419 -6.077814 -24.498763 -10.432132 24.990928 -4.383594 1.773696 0.072484 0.000000 0.000000 0.000000 25.291186 -21.197478 8.752284 15.756411 1.915667 -0.922310 9.860745 1.912649 -1.302920 0.894860 0.475001 0.779733 0.000000 0.000000 0.000000 10.476055 1.595919 -0.542132 -7.710701 4.655112 -8.324460 -41.215848 12.180641 8.504876 0.000000 0.000000 0.000000 10.405549 1.714580 -1.081493 3.316171 -4.986658 6.161250 -5.220772 -3.069344 -0.998402 -48.863211 5.609413 -62.471519 -3.049770 -88.409593 -2.197806 0.000000 0.000000 0.000000 11.340808 1.903190 -0.835035 2.926595 12.274825 5.767613 1.108279 3.998181 1.561819 -39.579765 11.748094 47.986478 178.608641 81.342307 -179.563460 0.000000 0.000000 0.000000 
-0.488197 25.559561 3.694368 0.000000 0.000000 0.000000 24.052617 -20.154070 9.029877 -74.167440 -5.277664 28.826147 66.035041 -8.460539 3.250379 -8.204860 5.083823 -27.046084 -4.044550 -0.190007 0.706456 0.000000 0.000000 0.000000 24.261858 -21.517189 9.596763 -60.019420 0.554795 -32.918056 67.638817 9.933035 -6.458431 -24.785882 -10.370534 25.014653 -3.947892 1.848636 0.047807 0.000000 0.000000 0.000000 25.500482 -21.169673 8.997640 15.777438 1.848009 -0.863177 9.953634 1.758710 -1.307708 0.874076 0.378588 0.813012 0.000000 0.000000 0.000000 10.680130 1.414653 -0.588213 -7.266835 4.647003 -8.068109 -41.582123 12.931090 8.162610 0.000000 0.000000 0.000000 10.692564 1.525120 -0.990530 3.226179 -4.863480 5.593063 -4.928713 -2.819603 -0.981584 -47.250098 6.044297 -62.544623 -179.567832 -89.079525 -178.709427 0.000000 0.000000 0.000000 11.509718 1.633577 -0.886238 2.909170 12.108053 5.998101 0.829930 3.872565 1.458190 -38.953921 10.913062 49.503080 179.111848 77.351824 179.852336 0.000000 0.000000 0.000000 
-0.561897 25.468357 3.703701 0.000000 0.000000 0.000000 24.413685 -20.497884 9.412384 -74.412117 -5.262847 29.009514 66.288420 -8.558555 3.260583 -8.327832 5.291567 -27.178221 -3.873744 -0.202251 0.876907 0.000000 0.000000 0.000000 24.803371 -21.963976 10.008379 -60.959411 0.754347 -32.755050 68.310819 9.812235 -6.690915 -25.000977 -10.181964 25.084785 -3.705098 1.930604 0.031656 0.000000 0.000000 0.000000 25.796557 -21.233117 9.235722 15.777921 1.735775 -0.770067 10.125444 1.565585 -1.277459 0.909115 0.294993 0.751586 0.000000 0.000000 0.000000 10.915840 1.204937 -0.625888 -6.900254 4.616483 -7.944482 -41.967039 13.700766 7.696375 0.000000 0.000000 0.000000 11.044547 1.300312 -0.913762 3.156044 -4.930123 4.757399 -4.692286 -2.448900 -0.769746 -45.727232 6.423142 -62.366737 179.524064 -87.109979 -179.565400 0.000000 0.000000 0.000000 11.753481 1.369751 -0.915928 2.914036 11.991913 5.920904 0.569865 3.791374 1.379062 -38.360357 9.792149 50.870805 179.249067 73.780783 179.655682 0.000000 0.000000 0.000000 
-0.646263 25.365004 3.684954 0.000000 0.000000 0.000000 24.777365 -20.912368 9.769290 -74.572818 -5.393230 29.239353 66.568540 -8.579300 3.305429 -8.432955 5.621268 -27.373689 -3.712677 -0.218408 1.029095 0.000000 0.000000 0.000000 25.275856 -22.429388 10.368190 -61.928724 0.984125 -32.644691 69.218025 9.760399 -6.816006 -25.180023 -9.922366 25.268522 -3.788305 1.998527 0.030972 0.000000 0.000000 0.000000 26.126119 -21.338230 9.476821 15.744431 1.613125 -0.646617 10.347322 1.402308 -1.214884 1.090705 0.343802 0.741902 0.000000 0.000000 0.000000 11.150897 1.028892 -0.644779 -6.607061 4.558924 -7.997187 -42.394165 14.477610 7.110790 0.000000 0.000000 0.000000 11.416933 1.095194 -0.849021 3.083688 -5.038106 3.630789 -4.423534 -2.082174 -0.380676 -44.472721 6.579963 -62.210900 179.784089 -85.823362 -179.255911 0.000000 0.000000 0.000000 12.044158 1.178290 -0.917866 2.918183 11.936148 5.727182 0.265909 3.627962 1.474891 -37.685442 8.922764 51.855793 179.259189 71.257110 179.596068 0.000000 0.000000 0.000000 
-0.726553 25.254259 3.643618 0.000000 0.000000 0.000000 25.110574 -21.297223 10.058214 -74.663796 -5.657720 29.426665 66.759970 -8.604060 3.388761 -8.486216 5.981998 -27.683778 -3.664265 -0.246278 1.173905 0.000000 0.000000 0.000000 25.648853 -22.880186 10.673412 -62.884657 1.224060 -32.631256 70.289661 9.766128 -6.849574 -25.473493 -9.666384 25.496176 -4.076144 2.029599 0.043521 0.000000 0.000000 0.000000 26.440262 -21.449364 9.714149 15.660857 1.489603 -0.501510 10.583306 1.294469 -1.122523 1.123792 0.419824 0.736008 0.000000 0.000000 0.000000 11.396382 0.913786 -0.635517 -6.354665 4.466693 -8.191910 -42.815990 15.208389 6.399294 0.000000 0.000000 0.000000 11.779794 0.938601 -0.779848 2.986745 -5.048281 2.266247 -4.273668 -1.758305 -0.148746 -43.382589 6.558175 -62.176366 -179.691963 -85.149906 -178.741966 0.000000 0.000000 0.000000 12.319779 1.056041 -0.864011 2.905325 11.867993 5.580530 0.046358 3.537596 1.636586 -36.849246 8.542834 52.392127 179.247591 69.871469 179.548243 0.000000 0.000000 0.000000 
